<?xml version="1.0" ?><!DOCTYPE svg  PUBLIC '-//W3C//DTD SVG 1.1//EN'  'http://www.w3.org/Graphics/SVG/1.1/DTD/svg11.dtd'><svg height="365px" style="shape-rendering:geometricPrecision; text-rendering:geometricPrecision; image-rendering:optimizeQuality; fill-rule:evenodd; clip-rule:evenodd" version="1.1" viewBox="0 0 9.81 9.81" width="365px" xml:space="preserve" xmlns="http://www.w3.org/2000/svg" xmlns:xlink="http://www.w3.org/1999/xlink" xmlns:xodm="http://www.corel.com/coreldraw/odm/2003"><defs><style type="text/css">
   <![CDATA[
    .fil0 {fill:none}
    .fil2 {fill:#479DFF}
    .fil1 {fill:#2554B0;fill-rule:nonzero}
   ]]>
  </style></defs><g id="Layer_x0020_1"><rect class="fil0" height="9.81" width="9.81"/><path class="fil1" d="M3.29 2.86l3.23 0c0.12,0 0.23,0.04 0.3,0.12l0 0c0.08,0.08 0.13,0.19 0.13,0.3l0 2.25c0,0.08 -0.07,0.15 -0.16,0.15l-3.77 0c-0.09,0 -0.16,-0.07 -0.16,-0.15l0 -2.25c0,-0.11 0.05,-0.22 0.13,-0.3l0 0c0.08,-0.08 0.18,-0.12 0.3,-0.12zm3.23 0.31l-3.23 0c-0.03,0 -0.06,0.02 -0.08,0.04l0 0c-0.02,0.02 -0.03,0.04 -0.03,0.07l0 2.09 3.45 0 0 -2.09c0,-0.03 -0.01,-0.05 -0.03,-0.07l0 0c-0.02,-0.02 -0.05,-0.04 -0.08,-0.04z"/><path class="fil1" d="M3.17 5.59l-0.43 0.98c0,0.01 0,0.02 0,0.02 0,0.01 0,0.02 0.01,0.03 0,0 0.01,0.01 0.02,0.01 0,0.01 0.01,0.01 0.02,0.01l4.23 0c0.01,0 0.02,0 0.03,-0.01 0,0 0.01,-0.01 0.02,-0.01 0,-0.01 0,-0.02 0,-0.03 0.01,0 0,-0.01 0,-0.02l-0.42 -0.98 0.29 -0.13 0.42 0.98c0.03,0.06 0.04,0.12 0.03,0.18 -0.01,0.06 -0.03,0.12 -0.06,0.17 -0.04,0.05 -0.08,0.1 -0.13,0.12l0 0c-0.06,0.03 -0.12,0.05 -0.18,0.05l-4.23 0c-0.06,0 -0.12,-0.02 -0.17,-0.05l0 0c-0.06,-0.02 -0.1,-0.07 -0.14,-0.12 -0.03,-0.05 -0.05,-0.11 -0.06,-0.17 0,-0.06 0.01,-0.12 0.03,-0.18l0.43 -0.98 0.29 0.13z"/><path class="fil1" d="M5.07 6.8c0,0.08 -0.08,0.16 -0.16,0.16 -0.09,0 -0.16,-0.08 -0.16,-0.16l0 -1.27c0,-0.09 0.07,-0.16 0.16,-0.16 0.08,0 0.16,0.07 0.16,0.16l0 1.27z"/><path class="fil1" d="M2.75 6.32c-0.09,0 -0.16,-0.07 -0.16,-0.16 0,-0.09 0.07,-0.16 0.16,-0.16l4.32 0c0.08,0 0.15,0.07 0.15,0.16 0,0.09 -0.07,0.16 -0.15,0.16l-4.32 0z"/><path class="fil1" d="M3.88 6.83c-0.02,0.09 -0.11,0.14 -0.19,0.12 -0.09,-0.02 -0.14,-0.1 -0.12,-0.19l0.27 -1.27c0.02,-0.08 0.1,-0.14 0.19,-0.12 0.08,0.02 0.14,0.1 0.12,0.19l-0.27 1.27z"/><path class="fil1" d="M6.25 6.76c0.01,0.09 -0.04,0.17 -0.13,0.19 -0.08,0.02 -0.17,-0.03 -0.18,-0.12l-0.28 -1.27c-0.01,-0.09 0.04,-0.17 0.13,-0.19 0.08,-0.02 0.17,0.04 0.19,0.12l0.27 1.27z"/><path class="fil2" d="M4.91 4.64c-0.21,0 -0.38,-0.17 -0.38,-0.38 0,-0.2 0.17,-0.37 0.38,-0.37 0.2,0 0.37,0.17 0.37,0.37 0,0.21 -0.17,0.38 -0.37,0.38z"/></g></svg>