<?xml version="1.0" ?><!DOCTYPE svg  PUBLIC '-//W3C//DTD SVG 1.1//EN'  'http://www.w3.org/Graphics/SVG/1.1/DTD/svg11.dtd'><svg height="365px" style="shape-rendering:geometricPrecision; text-rendering:geometricPrecision; image-rendering:optimizeQuality; fill-rule:evenodd; clip-rule:evenodd" version="1.1" viewBox="0 0 11.32 11.32" width="365px" xml:space="preserve" xmlns="http://www.w3.org/2000/svg" xmlns:xlink="http://www.w3.org/1999/xlink" xmlns:xodm="http://www.corel.com/coreldraw/odm/2003"><defs><style type="text/css">
   <![CDATA[
    .fil0 {fill:none}
    .fil2 {fill:#479DFF}
    .fil3 {fill:#2554B0;fill-rule:nonzero}
    .fil1 {fill:#479DFF;fill-rule:nonzero}
   ]]>
  </style></defs><g id="Layer_x0020_1"><rect class="fil0" height="11.32" width="11.32"/><polygon class="fil1" points="3.1,5.49 5.66,6.14 8.23,5.49 8.32,5.85 5.66,6.52 3.01,5.85 "/><rect class="fil2" height="0.87" rx="0.25" ry="0.18" width="1.17" x="5.07" y="6.15"/><path class="fil3" d="M7.96 8.2l-4.6 0c-0.13,0 -0.26,-0.05 -0.35,-0.14l0 0c-0.09,-0.09 -0.14,-0.21 -0.14,-0.35l0 -3.18c0,-0.13 0.05,-0.26 0.14,-0.35l0.01 0c0.08,-0.09 0.21,-0.14 0.34,-0.14l4.6 0c0.14,0 0.26,0.05 0.35,0.14l0 0c0.09,0.09 0.15,0.22 0.15,0.35l0 3.18c0,0.14 -0.06,0.26 -0.15,0.35l0 0c-0.09,0.09 -0.21,0.14 -0.35,0.14zm-4.6 -0.36l4.6 0c0.04,0 0.07,-0.02 0.09,-0.04l0 0c0.02,-0.02 0.04,-0.05 0.04,-0.09l0 -3.18c0,-0.03 -0.02,-0.06 -0.04,-0.09l0 0c-0.02,-0.02 -0.05,-0.04 -0.09,-0.04l-4.6 0c-0.03,0 -0.06,0.02 -0.09,0.04l0 0c-0.02,0.03 -0.03,0.06 -0.03,0.09l0 3.18c0,0.04 0.01,0.07 0.03,0.09l0 0c0.03,0.02 0.06,0.04 0.09,0.04z"/><path class="fil3" d="M6.55 4.4l-1.78 0c-0.1,0 -0.18,-0.08 -0.18,-0.18l0 -0.47c0,-0.17 0.07,-0.33 0.18,-0.44 0.12,-0.12 0.28,-0.19 0.45,-0.19l0.88 0c0.18,0 0.34,0.07 0.45,0.19 0.12,0.11 0.19,0.27 0.19,0.44l0 0.47c0,0.1 -0.09,0.18 -0.19,0.18zm-1.6 -0.36l1.42 0 0 -0.29c0,-0.07 -0.03,-0.14 -0.08,-0.18 -0.05,-0.05 -0.11,-0.08 -0.19,-0.08l-0.88 0c-0.07,0 -0.14,0.03 -0.19,0.08 -0.05,0.04 -0.08,0.11 -0.08,0.18l0 0.29z"/></g></svg>