<?xml version="1.0" ?><!DOCTYPE svg  PUBLIC '-//W3C//DTD SVG 1.1//EN'  'http://www.w3.org/Graphics/SVG/1.1/DTD/svg11.dtd'><svg height="365px" style="shape-rendering:geometricPrecision; text-rendering:geometricPrecision; image-rendering:optimizeQuality; fill-rule:evenodd; clip-rule:evenodd" version="1.1" viewBox="0 0 8.66 8.66" width="365px" xml:space="preserve" xmlns="http://www.w3.org/2000/svg" xmlns:xlink="http://www.w3.org/1999/xlink" xmlns:xodm="http://www.corel.com/coreldraw/odm/2003"><defs><style type="text/css">
   <![CDATA[
    .fil0 {fill:none}
    .fil1 {fill:#479DFF}
    .fil3 {fill:#2554B0;fill-rule:nonzero}
    .fil2 {fill:#479DFF;fill-rule:nonzero}
   ]]>
  </style></defs><g id="Layer_x0020_1"><rect class="fil0" height="8.66" width="8.66"/><path class="fil1" d="M4.33 6.32l-0.42 0c0,0.23 0.19,0.42 0.42,0.42 0.23,0 0.42,-0.19 0.42,-0.42l-0.42 0z"/><path class="fil2" d="M3.9 5.96c0.06,-0.71 0.1,-1.33 0.1,-1.77 -0.09,-0.02 -0.18,-0.04 -0.26,-0.08 -0.08,-0.04 -0.15,-0.09 -0.19,-0.16 -0.05,-0.08 -0.07,-0.16 -0.04,-0.26 0.03,-0.08 0.08,-0.16 0.18,-0.24 0.33,-0.29 0.48,-0.07 0.51,0.52l0 0.04c0.05,0.01 0.09,0.01 0.13,0.01 0.04,0 0.08,0 0.12,-0.01l0 -0.04c0.04,-0.59 0.18,-0.81 0.52,-0.52 0.09,0.08 0.15,0.16 0.17,0.24 0.04,0.1 0.02,0.18 -0.03,0.26 -0.04,0.07 -0.11,0.12 -0.2,0.16 -0.07,0.04 -0.16,0.06 -0.25,0.08 -0.01,0.44 0.04,1.06 0.09,1.77l-0.21 0.02c-0.05,-0.7 -0.09,-1.31 -0.09,-1.76 -0.04,0.01 -0.08,0.01 -0.12,0.01 -0.04,0 -0.08,0 -0.12,-0.01 0,0.45 -0.04,1.06 -0.1,1.76l-0.21 -0.02zm0.09 -1.98c-0.01,-0.31 -0.06,-0.46 -0.16,-0.37 -0.07,0.06 -0.1,0.1 -0.12,0.15 -0.01,0.03 0,0.05 0.01,0.07 0.02,0.04 0.06,0.07 0.12,0.09 0.04,0.02 0.1,0.04 0.15,0.06zm0.67 0c0.06,-0.02 0.11,-0.04 0.16,-0.06 0.05,-0.02 0.09,-0.05 0.12,-0.09 0.01,-0.02 0.01,-0.04 0,-0.07 -0.01,-0.05 -0.05,-0.09 -0.11,-0.15 -0.1,-0.09 -0.15,0.06 -0.17,0.37z"/><path class="fil3" d="M3.37 5c-0.21,-0.15 -0.37,-0.35 -0.49,-0.58 -0.11,-0.22 -0.18,-0.47 -0.18,-0.73 0,-0.45 0.19,-0.86 0.48,-1.15 0.29,-0.29 0.7,-0.47 1.15,-0.47 0.45,0 0.85,0.18 1.15,0.47 0.29,0.29 0.47,0.7 0.47,1.15 0,0.26 -0.06,0.51 -0.17,0.73 -0.12,0.23 -0.29,0.43 -0.49,0.58 -0.12,0.09 -0.16,0.24 -0.2,0.41l-0.09 0.35c-0.02,0.1 -0.06,0.18 -0.12,0.25 -0.07,0.06 -0.15,0.1 -0.25,0.1l-0.6 0c-0.11,0 -0.19,-0.04 -0.25,-0.1 -0.06,-0.07 -0.1,-0.15 -0.13,-0.25l-0.08 -0.35c-0.04,-0.17 -0.08,-0.32 -0.2,-0.41zm-0.24 -0.7c0.1,0.19 0.23,0.35 0.41,0.48 0.2,0.14 0.25,0.34 0.3,0.56 0.01,0.06 0.08,0.32 0.08,0.36 0.02,0.04 0.03,0.08 0.06,0.11 0.01,0.01 0.03,0.02 0.05,0.02l0.6 0c0.02,0 0.04,-0.01 0.05,-0.02 0.02,-0.03 0.04,-0.07 0.05,-0.11 0,-0.04 0.07,-0.3 0.09,-0.36 0.05,-0.22 0.1,-0.42 0.3,-0.56 0.17,-0.13 0.31,-0.29 0.41,-0.48 0.09,-0.18 0.14,-0.39 0.14,-0.61 0,-0.37 -0.15,-0.71 -0.39,-0.95 -0.24,-0.24 -0.58,-0.39 -0.95,-0.39 -0.37,0 -0.71,0.15 -0.95,0.39 -0.25,0.24 -0.4,0.58 -0.4,0.95 0,0.22 0.06,0.43 0.15,0.61z"/></g></svg>