<?xml version="1.0" ?><!DOCTYPE svg  PUBLIC '-//W3C//DTD SVG 1.1//EN'  'http://www.w3.org/Graphics/SVG/1.1/DTD/svg11.dtd'><svg height="365px" style="shape-rendering:geometricPrecision; text-rendering:geometricPrecision; image-rendering:optimizeQuality; fill-rule:evenodd; clip-rule:evenodd" version="1.1" viewBox="0 0 8.66 8.66" width="365px" xml:space="preserve" xmlns="http://www.w3.org/2000/svg" xmlns:xlink="http://www.w3.org/1999/xlink" xmlns:xodm="http://www.corel.com/coreldraw/odm/2003"><defs><style type="text/css">
   <![CDATA[
    .fil0 {fill:none}
    .fil2 {fill:#479DFF}
    .fil1 {fill:#2554B0;fill-rule:nonzero}
   ]]>
  </style></defs><g id="Layer_x0020_1"><rect class="fil0" height="8.66" width="8.66"/><path class="fil1" d="M2.94 3.41l0 -0.5c0,-0.1 0.04,-0.19 0.11,-0.25 0.06,-0.07 0.15,-0.11 0.25,-0.11l2.72 0c0.1,0 0.19,0.04 0.25,0.1l0 0.01c0.07,0.06 0.11,0.15 0.11,0.25l0 1.66c0,0.1 -0.04,0.19 -0.11,0.25 -0.06,0.07 -0.15,0.11 -0.25,0.11l-0.45 0 0 -0.28 0.45 0c0.02,0 0.04,-0.01 0.05,-0.02 0.02,-0.02 0.03,-0.04 0.03,-0.06l0 -1.66c0,-0.02 -0.01,-0.04 -0.03,-0.06l0 0c-0.01,-0.01 -0.03,-0.02 -0.05,-0.02l-2.72 0c-0.02,0 -0.04,0.01 -0.05,0.02 -0.02,0.02 -0.03,0.04 -0.03,0.06l0 0.5 -0.28 0z"/><path class="fil1" d="M5.35 5.65l-2.06 0 -0.8 0.44c-0.07,0.04 -0.16,0.01 -0.19,-0.06 -0.02,-0.02 -0.02,-0.04 -0.02,-0.06l0 -2.35c0,-0.09 0.04,-0.18 0.1,-0.25l0.01 0c0.06,-0.06 0.15,-0.1 0.25,-0.1l2.71 0c0.1,0 0.19,0.04 0.26,0.1l0 0c0.06,0.07 0.1,0.16 0.1,0.25l0 1.67c0,0.1 -0.04,0.19 -0.1,0.25 -0.07,0.07 -0.16,0.11 -0.26,0.11zm-2.09 -0.28l2.09 0c0.03,0 0.05,-0.01 0.06,-0.03 0.01,-0.01 0.02,-0.03 0.02,-0.05l0 -1.67c0,-0.02 -0.01,-0.04 -0.02,-0.05l0 0c-0.01,-0.02 -0.03,-0.02 -0.06,-0.02l-2.71 0c-0.02,0 -0.04,0 -0.06,0.02l0 0c-0.01,0.01 -0.02,0.03 -0.02,0.05l0 2.11 0.62 -0.34c0.03,-0.02 0.05,-0.02 0.08,-0.02z"/><circle class="fil2" cx="3.25" cy="4.46" r="0.2"/><circle class="fil2" cx="4" cy="4.46" r="0.2"/><circle class="fil2" cx="4.75" cy="4.46" r="0.2"/></g></svg>