<?xml version="1.0" encoding="iso-8859-1"?>
<!-- Generator: Adobe Illustrator 19.0.0, SVG Export Plug-In . SVG Version: 6.00 Build 0)  -->
<svg height="20" width="20" version="1.1" id="Capa_1" xmlns="http://www.w3.org/2000/svg" xmlns:xlink="http://www.w3.org/1999/xlink" x="0px" y="0px"
	 viewBox="0 0 490 490" style="enable-background:new 0 0 490 490;" xml:space="preserve">
<g>
	<path d="M58.832,0v490h372.335V121.887L305.708,0H58.832z M304.946,41.95l71.225,69.191h-71.225V41.95z M89.442,459.39V30.61
		h184.893v111.141h126.222V459.39H89.442z"/>
	<path d="M182.605,247.483v-39.864c6.378,2.854,10.324,8.287,11.836,16.308l24.953-3.364c-1.703-10.196-5.648-18.335-11.837-24.425
		c-6.178-6.079-14.492-9.772-24.953-11.067v-10.091h-14.302v10.091c-11.308,1.157-20.373,5.528-27.174,13.104
		c-6.813,7.586-10.208,16.956-10.208,28.096c0,11.014,3.004,20.383,9.024,28.097c6.019,7.724,15.465,13.485,28.359,17.284v42.728
		c-3.554-1.761-6.77-4.615-9.668-8.562c-2.898-3.936-4.865-8.637-5.912-14.069l-25.747,2.854c1.967,13.391,6.505,23.757,13.613,31.1
		c7.098,7.342,16.333,11.736,27.714,13.157v18.558h14.302v-19.068c12.82-1.899,22.838-7.066,30.041-15.501
		c7.193-8.425,10.8-18.791,10.8-31.099c0-11.014-2.866-20.043-8.589-27.078C209.135,257.637,198.387,251.907,182.605,247.483z
		 M168.303,242.592c-4.274-1.899-7.467-4.404-9.573-7.491c-2.105-3.099-3.152-6.441-3.152-10.048c0-3.947,1.153-7.544,3.448-10.812
		c2.306-3.257,5.395-5.57,9.277-6.928V242.592z M194.642,308.727c-3.1,3.778-7.108,6.133-12.037,7.088v-39.768
		c5.923,1.762,10.176,4.297,12.778,7.597c2.591,3.289,3.893,7.226,3.893,11.778C199.275,300.514,197.731,304.95,194.642,308.727z"/>
	<path d="M332.641,213.823c10.759,0,18.945,2.812,24.547,8.414l5.839-27.421c-8.176-4.02-17.819-6.036-28.899-6.036
		c-20.33,0-36.733,6.667-49.208,20c-8.247,8.847-13.757,19.834-16.527,32.96h-11.782l-3.163,15.349h12.961
		c-0.135,2.315-0.197,4.982-0.197,8.02c0,1.779,0.032,3.463,0.104,5.044h-9.705l-3.163,15.343h14.646
		c2.708,13.395,8.279,24.589,16.733,33.56c12.403,13.198,28.247,19.793,47.513,19.793c11.421,0,21.415-2.139,29.995-6.429v-30.294
		c-7.525,7.794-17.623,11.68-30.294,11.68c-10.553,0-19.131-3.886-25.736-11.68c-3.431-4.021-5.974-9.57-7.617-16.63h45.135
		l3.173-15.343h-50.386c-0.134-2.502-0.207-4.91-0.207-7.225c0-2.377,0.042-4.32,0.104-5.839h53.259l3.163-15.349h-54.438
		c1.582-6.532,4.249-11.979,8.01-16.331C313.168,217.688,321.881,213.823,332.641,213.823z"/>
</g>
<g>
</g>
<g>
</g>
<g>
</g>
<g>
</g>
<g>
</g>
<g>
</g>
<g>
</g>
<g>
</g>
<g>
</g>
<g>
</g>
<g>
</g>
<g>
</g>
<g>
</g>
<g>
</g>
<g>
</g>
</svg>
