<?xml version="1.0" ?><svg viewBox="0 0 64 64" xmlns="http://www.w3.org/2000/svg"><g data-name="19-game" id="_19-game"><path d="M32,46c11.875,0,16.71875,3.51563,18.68164,6.15234A6.86743,6.86743,0,0,0,56.1682,55h.12251A6.70929,6.70929,0,0,0,63,48.29071V38S60,9,50,9s-10,5-18,5S24,9,14,9,1,38,1,38V48.29071A6.70929,6.70929,0,0,0,7.70929,55H7.8318a6.86743,6.86743,0,0,0,5.48656-2.84766C15.28125,49.51562,20.125,46,32,46Z" style="fill:#7bace6"/><polygon points="26 26 20 26 20 20 14 20 14 26 8 26 8 32 14 32 14 38 20 38 20 32 26 32 26 26" style="fill:#a8d7e4"/><circle cx="46" cy="22" r="3" style="fill:#f7c2ca"/><circle cx="46" cy="36" r="3" style="fill:#fcea81"/><circle cx="53" cy="29" r="3" style="fill:#e36861"/><circle cx="39" cy="29" r="3" style="fill:#95c590"/></g></svg>