<?xml version="1.0" ?><!DOCTYPE svg  PUBLIC '-//W3C//DTD SVG 1.1//EN'  'http://www.w3.org/Graphics/SVG/1.1/DTD/svg11.dtd'><svg height="365px" style="shape-rendering:geometricPrecision; text-rendering:geometricPrecision; image-rendering:optimizeQuality; fill-rule:evenodd; clip-rule:evenodd" version="1.1" viewBox="0 0 10.51 10.51" width="365px" xml:space="preserve" xmlns="http://www.w3.org/2000/svg" xmlns:xlink="http://www.w3.org/1999/xlink" xmlns:xodm="http://www.corel.com/coreldraw/odm/2003"><defs><style type="text/css">
   <![CDATA[
    .fil0 {fill:none}
    .fil2 {fill:#2554B0}
    .fil3 {fill:#479DFF}
    .fil1 {fill:#2554B0;fill-rule:nonzero}
   ]]>
  </style></defs><g id="Layer_x0020_1"><rect class="fil0" height="10.51" width="10.51"/><path class="fil1" d="M2.53 8.05c-0.1,0 -0.17,-0.07 -0.17,-0.17 0,-0.09 0.07,-0.17 0.17,-0.17l5.46 0c0.09,0 0.17,0.08 0.17,0.17 0,0.1 -0.08,0.17 -0.17,0.17l-5.46 0z"/><path class="fil2" d="M2.82 4.72l1 0c0.16,0 0.29,0.13 0.29,0.29l0 1.57c0,0.16 -0.13,0.28 -0.29,0.28l-1 0c-0.16,0 -0.29,-0.12 -0.29,-0.28l0 -1.57c0,-0.16 0.13,-0.29 0.29,-0.29zm0.95 0.35l-0.9 0 0 1.45 0.9 0 0 -1.45z"/><path class="fil3" d="M4.75 2.63l1.01 0c0.16,0 0.29,0.13 0.29,0.29l0 3.66c0,0.15 -0.13,0.28 -0.29,0.28l-1.01 0c-0.15,0 -0.28,-0.13 -0.28,-0.28l0 -3.66c0,-0.16 0.13,-0.29 0.28,-0.29zm0.96 0.34l-0.9 0 0 3.55 0.9 0 0 -3.55z"/><path class="fil2" d="M6.69 3.82l1.01 0c0.16,0 0.29,0.13 0.29,0.29l0 2.47c0,0.16 -0.13,0.28 -0.29,0.28l-1.01 0c-0.16,0 -0.29,-0.12 -0.29,-0.28l0 -2.47c0,-0.16 0.13,-0.29 0.29,-0.29zm0.96 0.34l-0.9 0 0 2.36 0.9 0 0 -2.36z"/></g></svg>