<?xml version="1.0" ?><!DOCTYPE svg  PUBLIC '-//W3C//DTD SVG 1.1//EN'  'http://www.w3.org/Graphics/SVG/1.1/DTD/svg11.dtd'><svg height="365px" style="shape-rendering:geometricPrecision; text-rendering:geometricPrecision; image-rendering:optimizeQuality; fill-rule:evenodd; clip-rule:evenodd" version="1.1" viewBox="0 0 9.81 9.81" width="365px" xml:space="preserve" xmlns="http://www.w3.org/2000/svg" xmlns:xlink="http://www.w3.org/1999/xlink" xmlns:xodm="http://www.corel.com/coreldraw/odm/2003"><defs><style type="text/css">
   <![CDATA[
    .fil0 {fill:none}
    .fil1 {fill:#2554B0;fill-rule:nonzero}
    .fil2 {fill:#479DFF;fill-rule:nonzero}
   ]]>
  </style></defs><g id="Layer_x0020_1"><rect class="fil0" height="9.81" width="9.81"/><path class="fil1" d="M3.85 4.95c-0.23,0 -0.43,-0.1 -0.59,-0.25 -0.15,-0.15 -0.24,-0.36 -0.24,-0.59 0,-0.23 0.09,-0.43 0.24,-0.58 0.16,-0.15 0.36,-0.25 0.59,-0.25 0.23,0 0.44,0.1 0.59,0.25l0 0c0.15,0.15 0.24,0.35 0.24,0.58 0,0.23 -0.09,0.44 -0.24,0.59l0 0c-0.15,0.15 -0.36,0.25 -0.59,0.25zm-0.36 -0.47c0.09,0.09 0.22,0.15 0.36,0.15 0.14,0 0.27,-0.06 0.37,-0.15l0 0c0.09,-0.1 0.15,-0.22 0.15,-0.37 0,-0.14 -0.06,-0.27 -0.15,-0.36l0 0c-0.1,-0.09 -0.23,-0.15 -0.37,-0.15 -0.14,0 -0.27,0.06 -0.36,0.15 -0.09,0.09 -0.15,0.22 -0.15,0.36 0,0.15 0.06,0.27 0.15,0.37z"/><path class="fil1" d="M3.85 6.53l-1.34 0c-0.09,0 -0.16,-0.07 -0.16,-0.16l0 -0.46c0,-0.38 0.41,-0.62 0.92,-0.71 0.19,-0.03 0.39,-0.05 0.58,-0.05 0.2,0 0.4,0.02 0.58,0.05 0.52,0.09 0.93,0.33 0.93,0.71l0 0.46c0,0.09 -0.08,0.16 -0.16,0.16l-1.35 0zm-1.18 -0.32l2.37 0 0 -0.3c0,-0.19 -0.29,-0.33 -0.67,-0.4 -0.16,-0.03 -0.34,-0.04 -0.52,-0.04 -0.18,0 -0.36,0.01 -0.52,0.04 -0.37,0.07 -0.66,0.21 -0.66,0.4l0 0.3z"/><path class="fil2" d="M5.96 4.95c-0.23,0 -0.44,-0.1 -0.59,-0.25l0 0c-0.15,-0.15 -0.24,-0.36 -0.24,-0.59 0,-0.23 0.09,-0.43 0.24,-0.58l0 0c0.15,-0.15 0.36,-0.25 0.59,-0.25 0.23,0 0.44,0.1 0.59,0.25l0 0c0.15,0.15 0.24,0.35 0.24,0.58 0,0.23 -0.09,0.44 -0.24,0.59l0 0c-0.15,0.15 -0.36,0.25 -0.59,0.25zm-0.36 -0.47c0.09,0.09 0.22,0.15 0.36,0.15 0.14,0 0.27,-0.06 0.36,-0.15l0 0c0.1,-0.1 0.15,-0.22 0.15,-0.37 0,-0.14 -0.05,-0.27 -0.15,-0.36l0 0c-0.09,-0.09 -0.22,-0.15 -0.36,-0.15 -0.14,0 -0.27,0.06 -0.36,0.15l0 0c-0.1,0.09 -0.15,0.22 -0.15,0.36 0,0.15 0.05,0.27 0.15,0.37l0 0z"/><path class="fil2" d="M5.96 6.53l-1.34 0c-0.09,0 -0.16,-0.07 -0.16,-0.16l0 -0.46c0,-0.38 0.4,-0.62 0.92,-0.71 0.19,-0.03 0.39,-0.05 0.58,-0.05 0.2,0 0.39,0.02 0.58,0.05 0.52,0.09 0.92,0.33 0.92,0.71l0 0.46c0,0.09 -0.07,0.16 -0.16,0.16l-1.34 0zm-1.18 -0.32l2.36 0 0 -0.3c0,-0.19 -0.29,-0.33 -0.66,-0.4 -0.16,-0.03 -0.34,-0.04 -0.52,-0.04 -0.18,0 -0.36,0.01 -0.52,0.04 -0.37,0.07 -0.66,0.21 -0.66,0.4l0 0.3z"/></g></svg>