<?xml version="1.0" ?><!DOCTYPE svg  PUBLIC '-//W3C//DTD SVG 1.1//EN'  'http://www.w3.org/Graphics/SVG/1.1/DTD/svg11.dtd'><svg height="365px" style="shape-rendering:geometricPrecision; text-rendering:geometricPrecision; image-rendering:optimizeQuality; fill-rule:evenodd; clip-rule:evenodd" version="1.1" viewBox="0 0 11.32 11.32" width="365px" xml:space="preserve" xmlns="http://www.w3.org/2000/svg" xmlns:xlink="http://www.w3.org/1999/xlink" xmlns:xodm="http://www.corel.com/coreldraw/odm/2003"><defs><style type="text/css">
   <![CDATA[
    .fil0 {fill:none}
    .fil1 {fill:#F4F5F7}
    .fil2 {fill:#2554B0;fill-rule:nonzero}
    .fil3 {fill:#479DFF;fill-rule:nonzero}
   ]]>
  </style></defs><g id="Layer_x0020_1"><rect class="fil0" height="11.32" rx="0.02" ry="0.02" width="11.32"/><path class="fil1" d="M7.6 7.74l-0.04 0c-0.15,0 -0.27,-0.13 -0.27,-0.28l0 -2.99 0.31 0 0.31 0 0 2.99c0,0.15 -0.13,0.28 -0.28,0.28l-0.03 0z"/><path class="fil2" d="M7.6 7.92l-0.04 0 -3.86 0c-0.13,0 -0.25,-0.05 -0.33,-0.13 -0.08,-0.09 -0.13,-0.2 -0.13,-0.33l0 -3.6c0,-0.12 0.05,-0.24 0.13,-0.32 0.08,-0.08 0.2,-0.14 0.33,-0.14l3.31 0c0.13,0 0.24,0.06 0.32,0.14 0.09,0.08 0.14,0.2 0.14,0.32l0 0.42 0.44 0c0.1,0 0.18,0.09 0.18,0.19l0 2.99c0,0.13 -0.05,0.24 -0.14,0.33 -0.08,0.08 -0.19,0.13 -0.32,0.13l-0.03 0zm-0.59 -4.15l-3.31 0c-0.03,0 -0.05,0.01 -0.07,0.03 -0.02,0.02 -0.03,0.04 -0.03,0.06l0 3.6c0,0.03 0.01,0.05 0.03,0.07 0.02,0.01 0.04,0.02 0.07,0.02l3.41 0c-0.01,-0.03 -0.01,-0.06 -0.01,-0.09l0 -3.6c0,-0.02 -0.01,-0.04 -0.03,-0.06 -0.01,-0.02 -0.04,-0.03 -0.06,-0.03zm0.55 3.78l0.07 0c0.02,0 0.05,-0.01 0.06,-0.02 0.02,-0.02 0.03,-0.04 0.03,-0.07l0 -2.81 -0.25 0 0 2.81 0 0 0 0 0 0 0 0 0 0.01 0 0 0 0 0 0 0 0 0 0 0 0 0 0 0 0 0 0 0 0 0 0 0 0 0 0.01 0 0 0 0 0 0 0 0 0 0 0 0 0 0 0 0 0 0 0 0 0 0.01 0 0 0 0 0 0 0 0 0 0 0 0 0 0 0 0 0 0 0 0 0 0 0 0 0 0 0 0 0.01 0 0 0 0 0.01 0 0 0 0 0 0 0 0 0 0 0 0 0 0 0 0 0 0 0 0 0 0 0 0 0 0 0 0 0 0 0 0 0 0 0 0 0 0 0 0.01 0 0 0 0 0 0 0 0 0 0 0 0 0 0 0 0 0 0 0 0 0 0 0 0 0 0 0 0 0 0 0.01 0 0 0 0 0 0 0 0 0.01 0 0 0 0 0 0 0 0 0 0 0 0 0 0 0 0 0 0 0 0 0 0 0 0 0 0 0 0 0 0 0 0 0 0 0 0 0 0 0 0 0 0 0 0 0 0 0.01 0.01 0 0 0 0 0 0 0 0 0 0 0 0 0 0 0 0 0 0 0 0 0 0 0 0 0 0 0 0 0 0 0 0 0 0 0 0 0 0 0 0 0 0 0 0 0 0 0.01 0 0 0 0 0 0 0 0 0.01 0 0 0 0 0 0 0 0 0 0 0 0 0 0 0 0 0 0 0 0 0 0 0 0 0 0 0.01 0 0 0 0 0 0 0 0 0 0 0 0 0 0 0.01 0 0 0.01 0 0 0 0 0 0 0 0 0 0 0 0 0 0 0 0 0 0 0 0.01 0 0 0 0 0 0 0 0 0 0 0 0 0 0 0 0 0 0 0 0 0 0 0 0 0 0.01 0 0 0 0 0 0 0 0 0 0 0 0 0 0 0 0 0 0 0 0 0 0 0 0 0 0.01 0 0 0 0 0 0 0 0 0 0 0 0 0 0 0 0 0z"/><path class="fil2" d="M4.53 5.94c-0.1,0 -0.19,-0.08 -0.19,-0.18 0,-0.1 0.09,-0.18 0.19,-0.18l2.12 0c0.1,0 0.18,0.08 0.18,0.18 0,0.1 -0.08,0.18 -0.18,0.18l-2.12 0z"/><path class="fil2" d="M4.06 6.59c-0.11,0 -0.19,-0.08 -0.19,-0.18 0,-0.11 0.08,-0.19 0.19,-0.19l2.59 0c0.1,0 0.18,0.08 0.18,0.19 0,0.1 -0.08,0.18 -0.18,0.18l-2.59 0z"/><path class="fil2" d="M4.06 7.24c-0.11,0 -0.19,-0.09 -0.19,-0.19 0,-0.1 0.08,-0.18 0.19,-0.18l2.59 0c0.1,0 0.18,0.08 0.18,0.18 0,0.1 -0.08,0.19 -0.18,0.19l-2.59 0z"/><path class="fil3" d="M4.06 4.04l0.77 0c0.1,0 0.19,0.08 0.19,0.18l0 0.78c0,0.1 -0.09,0.18 -0.19,0.18l-0.77 0c-0.11,0 -0.19,-0.08 -0.19,-0.18l0 -0.78c0,-0.1 0.08,-0.18 0.19,-0.18zm0.59 0.37l-0.41 0 0 0.4 0.41 0 0 -0.4z"/><path class="fil3" d="M5.45 4.5c-0.1,0 -0.18,-0.08 -0.18,-0.18 0,-0.1 0.08,-0.18 0.18,-0.18l1.2 0c0.1,0 0.18,0.08 0.18,0.18 0,0.1 -0.08,0.18 -0.18,0.18l-1.2 0z"/><path class="fil3" d="M5.45 5.08c-0.1,0 -0.18,-0.08 -0.18,-0.18 0,-0.1 0.08,-0.18 0.18,-0.18l1.2 0c0.1,0 0.18,0.08 0.18,0.18 0,0.1 -0.08,0.18 -0.18,0.18l-1.2 0z"/></g></svg>