<svg fill="none" height="20" viewBox="0 0 20 20" width="20" xmlns="http://www.w3.org/2000/svg"><g clip-rule="evenodd" fill="currentColor" fill-rule="evenodd"><path d="M5 6.75c0-.41.34-.75.75-.75h8.5a.75.75 0 010 1.5h-8.5A.75.75 0 015 6.75zM5 10.25c0-.41.34-.75.75-.75h8.5a.75.75 0 010 1.5h-8.5a.75.75 0 01-.75-.75z"></path><path d="M7.13 2c-1.61 0-2.34.14-3.08.53-.65.35-1.17.87-1.52 1.52-.4.74-.53 1.47-.53 3.08v5.74c0 1.61.14 2.34.53 3.08.35.65.87 1.17 1.52 1.52.74.4 1.47.53 3.08.53h5.74c1.61 0 2.34-.14 3.08-.53a3.64 3.64 0 001.52-1.52c.4-.74.53-1.47.53-3.08V7.13c0-1.61-.14-2.34-.53-3.08a3.64 3.64 0 00-1.52-1.52c-.74-.4-1.47-.53-3.08-.53zM4.75 3.86c.42-.22.85-.36 2.38-.36h5.74c1.53 0 1.96.14 2.38.36.38.2.69.5.9.9.21.4.35.84.35 2.37v5.74c0 1.53-.14 1.96-.36 2.38-.2.38-.5.69-.9.9-.34.18-.7.3-1.74.34v-2.74a.75.75 0 00-1.5 0v2.75H8v-2.75a.75.75 0 00-1.5 0v2.74c-1.03-.03-1.4-.16-1.75-.35-.38-.2-.69-.5-.9-.9-.21-.4-.35-.84-.35-2.37V7.13c0-1.53.14-1.96.36-2.38.2-.38.5-.69.9-.9zm1 2.14a.75.75 0 000 1.5h8.5a.75.75 0 000-1.5zm0 3.5a.75.75 0 000 1.5h8.5a.75.75 0 000-1.5z"></path></g>
</svg>
