<?xml version="1.0" ?><!DOCTYPE svg  PUBLIC '-//W3C//DTD SVG 1.1//EN'  'http://www.w3.org/Graphics/SVG/1.1/DTD/svg11.dtd'><svg height="365px" style="shape-rendering:geometricPrecision; text-rendering:geometricPrecision; image-rendering:optimizeQuality; fill-rule:evenodd; clip-rule:evenodd" version="1.1" viewBox="0 0 9.2 9.2" width="365px" xml:space="preserve" xmlns="http://www.w3.org/2000/svg" xmlns:xlink="http://www.w3.org/1999/xlink" xmlns:xodm="http://www.corel.com/coreldraw/odm/2003"><defs><style type="text/css">
   <![CDATA[
    .fil0 {fill:none}
    .fil1 {fill:#2554B0;fill-rule:nonzero}
    .fil2 {fill:#479DFF;fill-rule:nonzero}
   ]]>
  </style></defs><g id="Layer_x0020_1"><rect class="fil0" height="9.2" width="9.2"/><path class="fil1" d="M4.11 6.01c-0.03,-0.01 -0.06,-0.02 -0.08,-0.03 -0.03,-0.01 -0.05,-0.02 -0.08,-0.04l-0.49 0.3 -0.5 -0.5 0.29 -0.49c-0.01,-0.03 -0.02,-0.05 -0.03,-0.08l0 0c-0.01,-0.03 -0.02,-0.05 -0.03,-0.08l-0.56 -0.14 0 -0.7 0.56 -0.14c0.01,-0.03 0.02,-0.06 0.03,-0.08 0.01,-0.03 0.02,-0.05 0.03,-0.08l-0.29 -0.49 0.5 -0.5 0.49 0.29c0.03,-0.01 0.05,-0.02 0.08,-0.03 0.02,-0.01 0.05,-0.02 0.08,-0.03l0.14 -0.56 0.7 0 0.14 0.56c0.03,0.01 0.05,0.02 0.08,0.03 0.03,0.01 0.05,0.02 0.08,0.03l0.49 -0.29 0.5 0.5 -0.3 0.49c0.02,0.03 0.03,0.05 0.04,0.08l0 0c0.01,0.02 0.02,0.05 0.03,0.08l0.56 0.14 0 0.7 -0.56 0.14c-0.01,0.03 -0.02,0.05 -0.03,0.08 -0.01,0.03 -0.02,0.05 -0.04,0.08l0.3 0.49 -0.5 0.5 -0.49 -0.3c-0.03,0.02 -0.05,0.03 -0.08,0.04l0 0c-0.03,0.01 -0.05,0.02 -0.08,0.03l-0.14 0.56 -0.7 0 -0.14 -0.56zm0.03 -0.3c0.04,0.01 0.09,0.03 0.13,0.04l0.09 0.02 0.12 0.5 0.24 0 0.12 -0.5 0.09 -0.02c0.04,-0.01 0.09,-0.03 0.13,-0.04 0.04,-0.02 0.08,-0.04 0.12,-0.07l0.08 -0.04 0.43 0.27 0.18 -0.18 -0.27 -0.43 0.04 -0.08c0.03,-0.04 0.05,-0.08 0.07,-0.12 0.01,-0.05 0.03,-0.09 0.04,-0.13l0.02 -0.09 0.5 -0.12 0 -0.24 -0.5 -0.12 -0.02 -0.09c-0.01,-0.04 -0.03,-0.09 -0.04,-0.13 -0.02,-0.04 -0.04,-0.08 -0.07,-0.12l-0.04 -0.08 0.27 -0.44 -0.18 -0.17 -0.43 0.27 -0.08 -0.05c-0.04,-0.02 -0.08,-0.04 -0.12,-0.06 -0.05,-0.01 -0.09,-0.03 -0.13,-0.04l-0.09 -0.03 -0.12 -0.49 -0.24 0 -0.12 0.49 -0.09 0.03c-0.04,0.01 -0.09,0.03 -0.13,0.04 -0.04,0.02 -0.08,0.04 -0.12,0.06l-0.08 0.05 -0.44 -0.27 -0.17 0.17 0.27 0.44 -0.05 0.08c-0.02,0.04 -0.04,0.08 -0.06,0.12 -0.01,0.04 -0.03,0.09 -0.04,0.13l-0.03 0.09 -0.49 0.12 0 0.24 0.49 0.12 0.03 0.09c0.01,0.04 0.03,0.09 0.04,0.13 0.02,0.04 0.04,0.08 0.06,0.12l0.05 0.08 -0.27 0.43 0.17 0.18 0.44 -0.27 0.08 0.04c0.04,0.03 0.08,0.05 0.12,0.07z"/><path class="fil2" d="M4.6 5.44c-0.23,0 -0.44,-0.1 -0.59,-0.25l0 0c-0.15,-0.15 -0.25,-0.36 -0.25,-0.59 0,-0.23 0.1,-0.44 0.25,-0.59 0.15,-0.15 0.36,-0.25 0.59,-0.25 0.23,0 0.44,0.1 0.59,0.25l0 0c0.15,0.15 0.25,0.36 0.25,0.59 0,0.23 -0.1,0.44 -0.25,0.59l0 0c-0.15,0.15 -0.36,0.25 -0.59,0.25zm-0.38 -0.46c0.1,0.1 0.23,0.16 0.38,0.16 0.15,0 0.28,-0.06 0.38,-0.16l0 0c0.1,-0.1 0.16,-0.23 0.16,-0.38 0,-0.15 -0.06,-0.28 -0.16,-0.38l0 0c-0.1,-0.1 -0.23,-0.16 -0.38,-0.16 -0.15,0 -0.28,0.06 -0.38,0.16 -0.1,0.1 -0.16,0.23 -0.16,0.38 0,0.15 0.06,0.28 0.16,0.38l0 0z"/></g></svg>