<?xml version="1.0" ?><!DOCTYPE svg  PUBLIC '-//W3C//DTD SVG 1.1//EN'  'http://www.w3.org/Graphics/SVG/1.1/DTD/svg11.dtd'><svg height="365px" style="shape-rendering:geometricPrecision; text-rendering:geometricPrecision; image-rendering:optimizeQuality; fill-rule:evenodd; clip-rule:evenodd" version="1.1" viewBox="0 0 9.2 9.2" width="365px" xml:space="preserve" xmlns="http://www.w3.org/2000/svg" xmlns:xlink="http://www.w3.org/1999/xlink" xmlns:xodm="http://www.corel.com/coreldraw/odm/2003"><defs><style type="text/css">
   <![CDATA[
    .fil0 {fill:none}
    .fil3 {fill:#479DFF}
    .fil1 {fill:#2554B0;fill-rule:nonzero}
    .fil2 {fill:#479DFF;fill-rule:nonzero}
   ]]>
  </style></defs><g id="Layer_x0020_1"><rect class="fil0" height="9.2" width="9.2"/><path class="fil1" d="M2.69 5.51c-0.08,0 -0.15,-0.07 -0.15,-0.15 0,-0.08 0.07,-0.15 0.15,-0.15l3.82 0c0.08,0 0.14,0.07 0.14,0.15 0,0.08 -0.06,0.15 -0.14,0.15l-3.82 0z"/><path class="fil2" d="M4.05 4.75c-0.06,0.06 -0.15,0.06 -0.21,0 -0.06,-0.06 -0.06,-0.15 0,-0.21l0.56 -0.56c0.05,-0.06 0.15,-0.06 0.21,0l0.38 0.39 0.93 -0.93c0.06,-0.06 0.15,-0.06 0.21,0 0.06,0.06 0.06,0.15 0,0.21l-1.03 1.03c-0.06,0.06 -0.15,0.06 -0.21,0l-0.39 -0.38 -0.45 0.45z"/><polygon class="fil3" points="6.19,3.38 6.13,3.59 6.08,3.81 5.92,3.65 5.76,3.5 5.98,3.44 "/><path class="fil2" d="M6.33 3.42l-0.11 0.43c-0.02,0.08 -0.1,0.12 -0.18,0.1 -0.03,-0.01 -0.05,-0.02 -0.07,-0.04l-0.31 -0.31c-0.06,-0.06 -0.06,-0.15 0,-0.21 0.02,-0.02 0.05,-0.03 0.07,-0.04l0.42 -0.11c0.08,-0.02 0.16,0.02 0.18,0.1 0.01,0.03 0.01,0.06 0,0.08z"/><path class="fil1" d="M3.41 5.94c0,0.08 -0.06,0.14 -0.14,0.14 -0.09,0 -0.15,-0.06 -0.15,-0.14l0 -2.68c0,-0.08 0.06,-0.15 0.15,-0.15 0.08,0 0.14,0.07 0.14,0.15l0 2.68z"/></g></svg>