<svg xmlns="http://www.w3.org/2000/svg" width="20" height="20" fill="none" viewBox="0 0 20 20"><path fill="currentColor" fill-rule="evenodd" d="M10.4 3.13a.92.92 0 00-.82 0c-.05.03-.19.13-.44.6-.24.45-.52 1.09-.92 2-.16.38-.33.74-.48 1.12-.02.05-.09.2-.2.33a1.02 1.02 0 01-.33.25c-.16.08-.35.1-.38.1l-.68.1c-1 .14-1.69.24-2.19.35-.52.13-.66.23-.7.27a.92.92 0 00-.21.8c0 .05.07.22.46.59.37.35.92.8 1.7 1.42l.25.2a1.02 1.02 0 01.42 1.13l-.08.41a35.03 35.03 0 00-.43 2.56c-.07.64 0 .82.03.86a.92.92 0 00.74.44c.05 0 .24-.02.77-.39.49-.34 1.13-.87 2.03-1.62l.31-.26.15-.12c.07-.04.17-.11.32-.15a1.02 1.02 0 01.55 0c.15.04.25.1.32.15l.15.12.31.26c.9.75 1.54 1.28 2.03 1.62.53.37.72.4.77.4a.92.92 0 00.74-.45c.03-.04.1-.22.03-.86-.06-.6-.21-1.4-.43-2.56l-.08-.42a1.25 1.25 0 01-.02-.4 1.03 1.03 0 01.15-.42c.1-.17.26-.28.3-.3l.24-.2c.78-.63 1.33-1.07 1.7-1.42.39-.37.45-.54.46-.59a.92.92 0 00-.22-.8c-.03-.04-.17-.14-.7-.27-.5-.11-1.18-.21-2.18-.35l-.7-.1c-.04 0-.2-.03-.36-.1a1.02 1.02 0 01-.33-.25c-.12-.14-.19-.31-.2-.34l-.48-1.1c-.4-.92-.68-1.56-.92-2-.25-.48-.4-.58-.44-.6zM8.9 1.76a2.45 2.45 0 012.2 0c.5.25.82.73 1.1 1.24.28.51.58 1.22.96 2.09l.41.95.53.07c.94.14 1.7.24 2.28.38.56.13 1.11.32 1.49.74a2.46 2.46 0 01.58 2.12c-.11.55-.5 1-.9 1.4-.43.4-1.03.89-1.78 1.48l-.11.1.04.22c.21 1.1.38 1.99.45 2.66.06.64.07 1.3-.25 1.81a2.46 2.46 0 01-1.99 1.18c-.6.02-1.18-.3-1.7-.67-.56-.38-1.24-.95-2.1-1.67l-.11-.09-.11.09c-.87.72-1.55 1.29-2.1 1.67-.53.37-1.1.7-1.71.67a2.46 2.46 0 01-2-1.18c-.3-.51-.3-1.17-.24-1.81.07-.67.24-1.55.45-2.66l.04-.23-.11-.09c-.74-.6-1.35-1.07-1.77-1.48-.42-.4-.8-.85-.9-1.4a2.46 2.46 0 01.58-2.12c.37-.42.92-.61 1.48-.74.58-.14 1.34-.24 2.28-.38l.53-.07.4-.95c.39-.87.7-1.58.97-2.1.28-.5.6-.98 1.1-1.23z" clip-rule="evenodd">

</path></svg>
